<svg id="Слой_1" data-name="Слой 1" xmlns="http://www.w3.org/2000/svg" viewBox="0 0 542 556.89"><defs><style>.cls-1{fill:#4d7ae8;}.cls-2{fill:#3366e0;}.cls-3,.cls-4{fill:#19202e;}.cls-3{stroke:#ff6767;stroke-width:15px;}.cls-3,.cls-7{stroke-miterlimit:10;}.cls-5{fill:#ff9a2d;}.cls-6{fill:#fff;}.cls-7{fill:none;stroke:#19202e;}.cls-8{fill:#5d8be8;}</style></defs><title>logotype</title><path class="cls-1" d="M1444.48,2048.5a134.84,134.84,0,0,1-22.13,74.23,257.43,257.43,0,0,1-20.47,49.57A135.53,135.53,0,0,1,1298,2276.76a257.54,257.54,0,0,1-51.23,21.26,135.6,135.6,0,0,1-146.48,0,257.54,257.54,0,0,1-51.23-21.26A135.53,135.53,0,0,1,945.08,2172.3a257.43,257.43,0,0,1-20.47-49.57,135.55,135.55,0,0,1,.55-149.29,256.49,256.49,0,0,1,19.59-47.11A135.52,135.52,0,0,1,1052,1819.63a257.41,257.41,0,0,1,45.49-18.82,135.55,135.55,0,0,1,152,0,257.41,257.41,0,0,1,45.49,18.82,135.52,135.52,0,0,1,107.24,106.7,256.49,256.49,0,0,1,19.59,47.11A134.83,134.83,0,0,1,1444.48,2048.5Z" transform="translate(-902.48 -1762.61)"/><path class="cls-2" d="M1411.09,2153.48q-4.24,9.61-9.21,18.82A135.53,135.53,0,0,1,1298,2276.76a257.54,257.54,0,0,1-51.23,21.26,135.6,135.6,0,0,1-146.48,0,257.54,257.54,0,0,1-51.23-21.26A135.53,135.53,0,0,1,945.08,2172.3q-5.64-10.44-10.34-21.43a150.91,150.91,0,0,0,15.15,16.27c30.94,28.72,71.49,43.09,112.05,43.09,28.68,26.61,68.29,43.08,112,43.08s83.36-16.47,112-43.08c40.56,0,81.11-14.37,112-43.09A153.08,153.08,0,0,0,1411.09,2153.48Z" transform="translate(-902.48 -1762.61)"/><path class="cls-3" d="M1190.54,2064.51c-20.26,3.35-34,0-34,0-109.77-20.61-88.86-145.28-34-122.61l.07,0,.07,0a113.85,113.85,0,0,0,24.86,7.5l.89.17.71.14.38.07a133.36,133.36,0,0,0,22.73,2.13h2.52a133.36,133.36,0,0,0,22.73-2.13l.74-.14c.42-.08.83-.15,1.24-.24a113.85,113.85,0,0,0,24.86-7.5l.08,0,.07,0C1279.41,1919.23,1300.62,2046.32,1190.54,2064.51Z" transform="translate(-902.48 -1762.61)"/><circle class="cls-4" cx="286.03" cy="153.89" r="6.5"/><circle class="cls-4" cx="256.97" cy="153.89" r="6.5"/><path class="cls-5" d="M1116.55,2040.59c11.29,7.86,25.27,13.53,41.38,16.55l.39.09c.1,0,12.7,2.91,31-.12h0c30.21-5,53-19.65,64.51-41a103,103,0,0,0-137.27,24.47Z" transform="translate(-902.48 -1762.61)"/><path class="cls-6" d="M1227.49,1948.78l-.59.27a123.43,123.43,0,0,1-26,7.78l-1.3.25-.74.13a141.81,141.81,0,0,1-24,2.26h-2.58a141.7,141.7,0,0,1-24-2.24l-.59-.11-1.53-.29a121.45,121.45,0,0,1-26.46-8l0,0a26.33,26.33,0,0,0-10-2.17c-.23,0-.44,0-.66,0a102.69,102.69,0,0,0,35.45,19.57l6.1-6.14,1.56,8.24a103.21,103.21,0,0,0,89.27-21.19Q1235,1945.71,1227.49,1948.78Z" transform="translate(-902.48 -1762.61)"/><path class="cls-7" d="M1094.05,2226.85" transform="translate(-902.48 -1762.61)"/><path class="cls-8" d="M978.39,2063.19c-12.43-.69-23.84,8.06-27.12,20-3.56,12.92,2.29,26.92,12.41,35.18a46.22,46.22,0,0,0,18.25,8.9c8.23,2,17.63.41,25.37,4,6.63,3.13,10.85,9.76,17.07,13.56a37.88,37.88,0,0,0,15.9,5.22c13.32,1.37,27.09-3.79,35.44-14.4,1.18-1.5-.93-3.64-2.12-2.12-8.87,11.27-24.12,16.07-38,12.7-7.82-1.9-13.14-6.4-18.93-11.74-5.23-4.83-10.57-7.54-17.75-8.3-8.88-.93-17.29-1.18-25.48-5.18-8-3.93-14.71-10.37-18-18.77-6.45-16.47,3.6-37.17,23-36.09,1.93.11,1.93-2.89,0-3Z" transform="translate(-902.48 -1762.61)"/><path class="cls-8" d="M1378.61,2043.19c5.37,14.88.58,32.66-12.3,42.17-13.54,10-33.29,8.49-45.74-2.51a1.52,1.52,0,0,0-2.56,1.06c.34,22-7.89,45.39-25.54,59.41-17.37,13.79-42.09,12.82-57.73-3.2-1.35-1.38-3.47.74-2.12,2.13a45.77,45.77,0,0,0,59.32,5.19c20-14.15,29.44-39.71,29.07-63.53l-2.56,1.06c13.3,11.75,34.25,13.71,49,3.3,14.26-10.09,20-29.59,14.08-45.88-.65-1.8-3.55-1-2.89.8Z" transform="translate(-902.48 -1762.61)"/><path class="cls-8" d="M962.13,1937.21c-10.37,20,1.58,44.32,24,47.7,1.89.29,2.71-2.6.8-2.89a29.76,29.76,0,0,1-22.23-43.29c.89-1.72-1.7-3.23-2.59-1.52Z" transform="translate(-902.48 -1762.61)"/><path class="cls-8" d="M1383.48,1938.73a29.77,29.77,0,0,1-22.23,43.29c-1.9.29-1.09,3.18.8,2.89,22.44-3.38,34.39-27.67,24-47.7-.89-1.71-3.48-.2-2.59,1.52Z" transform="translate(-902.48 -1762.61)"/><path class="cls-8" d="M1155.89,2207.14a32.75,32.75,0,0,0,52.87-7.61c.88-1.71-1.71-3.23-2.59-1.51a29.74,29.74,0,0,1-48.16,7c-1.34-1.4-3.46.73-2.12,2.12Z" transform="translate(-902.48 -1762.61)"/><path class="cls-8" d="M1350.81,2168.1a59.16,59.16,0,0,0,31.92-3.29c8.12-3.29,16.75-9.16,15.59-19.06-.22-1.9-3.22-1.92-3,0,1.22,10.41-10,15.38-18.23,17.88a56.33,56.33,0,0,1-25.48,1.58c-1.89-.31-2.7,2.58-.8,2.89Z" transform="translate(-902.48 -1762.61)"/><path class="cls-1" d="M1397,1909.32c-.06,0,0,.16,0,.26l.09.42c.06.29.14.6.22.9.17.61.37,1.22.59,1.84a30,30,0,0,0,1.6,3.64,25.87,25.87,0,0,0,4.73,6.52,21.91,21.91,0,0,0,7,4.68,26.14,26.14,0,0,0,8.83,1.92,28.11,28.11,0,0,1-9.52,1.52,27.57,27.57,0,0,1-10-2.21,34.71,34.71,0,0,1-9-5.67,40.7,40.7,0,0,1-3.87-3.79c-.61-.68-1.2-1.38-1.77-2.12-.29-.37-.57-.75-.86-1.15l-.42-.61a9.14,9.14,0,0,1-.47-.79Z" transform="translate(-902.48 -1762.61)"/><path class="cls-1" d="M1182.64,1778.12c-.07,0,.14.06.25.08l.42,0,.92.07c.63,0,1.28,0,1.94,0a31.2,31.2,0,0,0,3.95-.37,26.15,26.15,0,0,0,7.68-2.44,21.85,21.85,0,0,0,6.64-5.14,26.08,26.08,0,0,0,4.6-7.78,28.08,28.08,0,0,1-1.56,9.51,27.43,27.43,0,0,1-5.25,8.84,35,35,0,0,1-8.22,6.77,41.31,41.31,0,0,1-4.82,2.48c-.84.36-1.68.71-2.57,1q-.66.24-1.35.45l-.72.21a7.55,7.55,0,0,1-.9.2Z" transform="translate(-902.48 -1762.61)"/><path class="cls-1" d="M952.65,1941.31a7.9,7.9,0,0,1-.55.74l-.48.58c-.32.38-.65.74-1,1.1-.65.7-1.32,1.36-2,2a48.16,48.16,0,0,1-4.25,3.6,40.49,40.49,0,0,1-9.53,5.39,30.79,30.79,0,0,1-10.41,2.22,29,29,0,0,1-10-1.45,27,27,0,0,0,9.29-2,25.8,25.8,0,0,0,7.54-4.8,31.87,31.87,0,0,0,5.55-6.68,38,38,0,0,0,2.07-3.74c.3-.64.59-1.28.84-1.91l.35-.94.14-.45c0-.12.11-.33.06-.31Z" transform="translate(-902.48 -1762.61)"/><path class="cls-1" d="M957.34,1940.59c-.34.29-.5.39-.73.56l-.63.43c-.42.28-.82.53-1.23.78-.82.5-1.64,1-2.47,1.4a46.89,46.89,0,0,1-5.07,2.29,40.37,40.37,0,0,1-10.64,2.59,31.11,31.11,0,0,1-10.62-.72,28.84,28.84,0,0,1-9.21-4.13,26.84,26.84,0,0,0,9.47.64,25.53,25.53,0,0,0,8.57-2.56,31.65,31.65,0,0,0,7.16-4.9,39.23,39.23,0,0,0,3-3c.46-.53.91-1.07,1.33-1.61.21-.27.41-.55.59-.81l.26-.39c.07-.11.19-.29.14-.28Z" transform="translate(-902.48 -1762.61)"/><path class="cls-2" d="M1389.3,2207c0-.08-.12.09-.19.17l-.26.35c-.17.24-.34.5-.51.76-.34.53-.67,1.1-1,1.67a32,32,0,0,0-1.64,3.62,26.28,26.28,0,0,0-1.68,7.89,22.07,22.07,0,0,0,1.18,8.31,26.29,26.29,0,0,0,4.49,7.85,28.14,28.14,0,0,1-7.5-6.07,27.24,27.24,0,0,1-5.07-8.94,34.65,34.65,0,0,1-1.82-10.49,42.65,42.65,0,0,1,.23-5.41c.1-.91.22-1.82.39-2.74.08-.46.18-.92.28-1.4l.18-.72a7.85,7.85,0,0,1,.27-.88Z" transform="translate(-902.48 -1762.61)"/><path class="cls-1" d="M1165.55,1789.86c0,.05.19,0,.31,0l.45-.14.94-.34c.64-.25,1.28-.53,1.93-.82a39.11,39.11,0,0,0,3.76-2,32.06,32.06,0,0,0,6.73-5.48,25.66,25.66,0,0,0,4.89-7.49,27.12,27.12,0,0,0,2.08-9.26,28.79,28.79,0,0,1,1.34,10,30.8,30.8,0,0,1-2.33,10.39,40.34,40.34,0,0,1-5.5,9.47,47.91,47.91,0,0,1-3.64,4.21c-.65.66-1.32,1.32-2,2-.36.33-.72.64-1.11,1l-.59.48a8.1,8.1,0,0,1-.74.54Z" transform="translate(-902.48 -1762.61)"/></svg>